<?xml version="1.0" encoding="UTF-8"?>
<svg xmlns="http://www.w3.org/2000/svg" xmlns:xlink="http://www.w3.org/1999/xlink" width="45pt" height="45pt" viewBox="0 0 45 45" version="1.1">
<g id="surface1">
<path style=" stroke:none;fill-rule:nonzero;fill:rgb(0%,0%,0%);fill-opacity:1;" d="M 41.9375 11.195312 C 39.929688 7.75 37.203125 5.023438 33.757812 3.015625 C 30.316406 1.003906 26.554688 0 22.476562 0 C 18.398438 0 14.636719 1.003906 11.195312 3.015625 C 7.75 5.023438 5.023438 7.75 3.015625 11.195312 C 1.003906 14.636719 0 18.398438 0 22.476562 C 0 26.554688 1.003906 30.3125 3.015625 33.757812 C 5.023438 37.203125 7.75 39.929688 11.195312 41.9375 C 14.636719 43.949219 18.398438 44.953125 22.476562 44.953125 C 26.554688 44.953125 30.316406 43.949219 33.757812 41.9375 C 37.203125 39.929688 39.929688 37.203125 41.9375 33.757812 C 43.949219 30.3125 44.953125 26.554688 44.953125 22.476562 C 44.953125 18.398438 43.949219 14.636719 41.9375 11.195312 Z M 36.261719 30.464844 C 34.835938 32.902344 32.90625 34.835938 30.464844 36.261719 C 28.027344 37.683594 25.363281 38.394531 22.476562 38.394531 C 19.589844 38.394531 16.925781 37.683594 14.488281 36.261719 C 12.046875 34.835938 10.117188 32.902344 8.691406 30.464844 C 7.269531 28.027344 6.554688 25.363281 6.554688 22.476562 C 6.554688 19.589844 7.269531 16.925781 8.691406 14.488281 C 10.117188 12.046875 12.046875 10.117188 14.488281 8.691406 C 16.925781 7.265625 19.589844 6.554688 22.476562 6.554688 C 25.363281 6.554688 28.027344 7.265625 30.464844 8.691406 C 32.90625 10.117188 34.835938 12.046875 36.261719 14.488281 C 37.683594 16.925781 38.398438 19.589844 38.398438 22.476562 C 38.398438 25.363281 37.683594 28.027344 36.261719 30.464844 Z M 36.261719 30.464844 "/>
</g>
</svg>
