<?xml version="1.0" encoding="UTF-8"?>
<svg xmlns="http://www.w3.org/2000/svg" xmlns:xlink="http://www.w3.org/1999/xlink" width="45pt" height="45pt" viewBox="0 0 45 45" version="1.1">
<g id="surface1">
<path style=" stroke:none;fill-rule:nonzero;fill:rgb(0%,0%,0%);fill-opacity:1;" d="M 28.972656 23.21875 C 28.5625 22.808594 28.5625 22.191406 28.972656 21.78125 L 44.382812 6.371094 C 44.792969 5.957031 45 5.34375 45 4.929688 C 45 4.519531 44.792969 3.902344 44.382812 3.492188 L 41.507812 0.617188 C 41.097656 0.207031 40.480469 0 40.070312 0 C 39.453125 0 39.042969 0.207031 38.628906 0.617188 L 23.21875 16.027344 C 22.808594 16.4375 22.191406 16.4375 21.78125 16.027344 L 6.371094 0.617188 C 5.957031 0.207031 5.34375 0 4.929688 0 C 4.519531 0 3.902344 0.207031 3.492188 0.617188 L 0.617188 3.492188 C 0.207031 3.902344 0 4.519531 0 4.929688 C 0 5.34375 0.207031 5.957031 0.617188 6.371094 L 16.027344 21.78125 C 16.4375 22.191406 16.4375 22.808594 16.027344 23.21875 L 0.617188 38.628906 C 0.207031 39.042969 0 39.65625 0 40.070312 C 0 40.480469 0.207031 41.097656 0.617188 41.507812 L 3.492188 44.382812 C 3.902344 44.792969 4.519531 45 4.929688 45 C 5.34375 45 5.957031 44.792969 6.371094 44.382812 L 21.78125 28.972656 C 22.191406 28.5625 22.808594 28.5625 23.21875 28.972656 L 38.628906 44.382812 C 39.042969 44.792969 39.65625 45 40.070312 45 C 40.480469 45 41.097656 44.792969 41.507812 44.382812 L 44.382812 41.507812 C 44.792969 41.097656 45 40.480469 45 40.070312 C 45 39.65625 44.792969 39.042969 44.382812 38.628906 Z M 28.972656 23.21875 "/>
</g>
</svg>
